<svg xmlns="http://www.w3.org/2000/svg" xmlns:xlink="http://www.w3.org/1999/xlink" width="180" zoomAndPan="magnify" viewBox="0 0 135 44.999999" height="60" preserveAspectRatio="xMidYMid meet" version="1.2"><defs/><g id="43fef4bdc6"><g style="fill:#000000;fill-opacity:1;"><g transform="translate(30.794899, 24.38226)"><path style="stroke:none" d="M 9.890625 -11.5625 L 9.5 -9.015625 L 7.015625 -9.015625 L 5.578125 0 L 2.578125 0 L 4 -9.015625 L 1.515625 -9.015625 L 1.921875 -11.5625 Z M 9.890625 -11.5625 "/></g></g><g style="fill:#000000;fill-opacity:1;"><g transform="translate(37.349274, 24.38226)"><path style="stroke:none" d="M 5.75 -11.5625 L 4.796875 -5.46875 C 4.710938 -4.914062 4.671875 -4.460938 4.671875 -4.109375 C 4.671875 -3.523438 4.796875 -3.082031 5.046875 -2.78125 C 5.296875 -2.476562 5.726562 -2.328125 6.34375 -2.328125 C 7.082031 -2.328125 7.648438 -2.570312 8.046875 -3.0625 C 8.441406 -3.550781 8.71875 -4.316406 8.875 -5.359375 L 9.828125 -11.5625 L 12.84375 -11.5625 L 11.796875 -4.90625 C 11.597656 -3.5625 11.242188 -2.535156 10.734375 -1.828125 C 10.234375 -1.117188 9.566406 -0.582031 8.734375 -0.21875 C 7.898438 0.132812 6.960938 0.3125 5.921875 0.3125 C 4.515625 0.3125 3.429688 0.0078125 2.671875 -0.59375 C 1.910156 -1.207031 1.53125 -2.097656 1.53125 -3.265625 C 1.53125 -3.484375 1.539062 -3.71875 1.5625 -3.96875 C 1.582031 -4.226562 1.976562 -6.757812 2.75 -11.5625 Z M 5.75 -11.5625 "/></g></g><g style="fill:#000000;fill-opacity:1;"><g transform="translate(47.66448, 24.38226)"><path style="stroke:none" d="M 5.8125 -11.5625 L 10.203125 -4.5 L 10.234375 -4.5 L 11.359375 -11.5625 L 14.359375 -11.5625 L 12.53125 0 L 9.53125 0 L 5.140625 -7.09375 L 5.109375 -7.09375 L 3.984375 0 L 0.984375 0 L 2.8125 -11.5625 Z M 5.8125 -11.5625 "/></g></g><g style="fill:#000000;fill-opacity:1;"><g transform="translate(59.560768, 24.38226)"><path style="stroke:none" d="M 5.8125 -11.5625 L 3.984375 0 L 0.984375 0 L 2.8125 -11.5625 Z M 5.8125 -11.5625 "/></g></g><g style="fill:#000000;fill-opacity:1;"><g transform="translate(62.906928, 24.38226)"><path style="stroke:none" d="M 5.8125 -11.5625 L 4.390625 -2.546875 L 8 -2.546875 L 7.59375 0 L 0.984375 0 L 2.8125 -11.5625 Z M 5.8125 -11.5625 "/></g></g><g style="fill:#000000;fill-opacity:1;"><g transform="translate(68.877991, 24.38226)"><path style="stroke:none" d="M 5.8125 -11.5625 L 3.984375 0 L 0.984375 0 L 2.8125 -11.5625 Z M 5.8125 -11.5625 "/></g></g><g style="fill:#000000;fill-opacity:1;"><g transform="translate(72.224153, 24.38226)"><path style="stroke:none" d="M 5.8125 -11.5625 L 10.203125 -4.5 L 10.234375 -4.5 L 11.359375 -11.5625 L 14.359375 -11.5625 L 12.53125 0 L 9.53125 0 L 5.140625 -7.09375 L 5.109375 -7.09375 L 3.984375 0 L 0.984375 0 L 2.8125 -11.5625 Z M 5.8125 -11.5625 "/></g></g><g style="fill:#000000;fill-opacity:1;"><g transform="translate(84.120441, 24.38226)"><path style="stroke:none" d="M 5.8125 -11.5625 L 5.0625 -6.796875 L 5.09375 -6.796875 L 9.484375 -11.5625 L 13.203125 -11.5625 L 7.75 -6.09375 L 11.796875 0 L 7.90625 0 L 4.8125 -5.015625 L 4.78125 -5.015625 L 3.984375 0 L 0.984375 0 L 2.8125 -11.5625 Z M 5.8125 -11.5625 "/></g></g><g style="fill:#000000;fill-opacity:1;"><g transform="translate(70.74957, 32.199436)"><path style="stroke:none" d="M 0.171875 -3.046875 C 0.171875 -3.921875 0.46875 -4.660156 1.0625 -5.265625 C 1.664062 -5.878906 2.390625 -6.1875 3.234375 -6.1875 C 4.085938 -6.1875 4.8125 -5.882812 5.40625 -5.28125 C 6 -4.675781 6.296875 -3.929688 6.296875 -3.046875 C 6.296875 -2.160156 6.003906 -1.410156 5.421875 -0.796875 C 4.835938 -0.191406 4.109375 0.109375 3.234375 0.109375 C 2.347656 0.109375 1.613281 -0.191406 1.03125 -0.796875 C 0.457031 -1.398438 0.171875 -2.148438 0.171875 -3.046875 Z M 1.671875 -3.046875 C 1.671875 -2.722656 1.71875 -2.429688 1.8125 -2.171875 C 1.914062 -1.910156 2.085938 -1.6875 2.328125 -1.5 C 2.578125 -1.320312 2.878906 -1.234375 3.234375 -1.234375 C 3.753906 -1.234375 4.144531 -1.410156 4.40625 -1.765625 C 4.664062 -2.117188 4.796875 -2.546875 4.796875 -3.046875 C 4.796875 -3.546875 4.660156 -3.972656 4.390625 -4.328125 C 4.128906 -4.679688 3.742188 -4.859375 3.234375 -4.859375 C 2.734375 -4.859375 2.347656 -4.679688 2.078125 -4.328125 C 1.804688 -3.972656 1.671875 -3.546875 1.671875 -3.046875 Z M 1.671875 -3.046875 "/></g></g><g style="fill:#000000;fill-opacity:1;"><g transform="translate(76.848928, 32.199436)"><path style="stroke:none" d="M 0.4375 -6.078125 L 2.625 -6.078125 C 3.207031 -6.078125 3.679688 -5.921875 4.046875 -5.609375 C 4.421875 -5.296875 4.609375 -4.851562 4.609375 -4.28125 C 4.609375 -3.832031 4.492188 -3.457031 4.265625 -3.15625 C 4.046875 -2.851562 3.742188 -2.640625 3.359375 -2.515625 L 5.453125 0 L 3.6875 0 L 1.828125 -2.40625 L 1.828125 0 L 0.4375 0 Z M 1.828125 -3.390625 L 1.984375 -3.390625 C 2.117188 -3.390625 2.226562 -3.390625 2.3125 -3.390625 C 2.40625 -3.398438 2.503906 -3.414062 2.609375 -3.4375 C 2.722656 -3.46875 2.816406 -3.507812 2.890625 -3.5625 C 2.960938 -3.625 3.019531 -3.703125 3.0625 -3.796875 C 3.113281 -3.898438 3.140625 -4.023438 3.140625 -4.171875 C 3.140625 -4.328125 3.113281 -4.457031 3.0625 -4.5625 C 3.019531 -4.664062 2.960938 -4.742188 2.890625 -4.796875 C 2.816406 -4.847656 2.722656 -4.890625 2.609375 -4.921875 C 2.503906 -4.953125 2.40625 -4.96875 2.3125 -4.96875 C 2.226562 -4.976562 2.117188 -4.984375 1.984375 -4.984375 L 1.828125 -4.984375 Z M 1.828125 -3.390625 "/></g></g><g style="fill:#000000;fill-opacity:1;"><g transform="translate(81.760854, 32.199436)"><path style="stroke:none" d="M 0.4375 -6.078125 L 2.203125 -6.078125 C 3.046875 -6.078125 3.765625 -5.785156 4.359375 -5.203125 C 4.960938 -4.628906 5.265625 -3.910156 5.265625 -3.046875 C 5.265625 -2.171875 4.96875 -1.441406 4.375 -0.859375 C 3.78125 -0.285156 3.054688 0 2.203125 0 L 0.4375 0 Z M 1.828125 -1.234375 L 2.046875 -1.234375 C 2.546875 -1.234375 2.957031 -1.40625 3.28125 -1.75 C 3.601562 -2.09375 3.769531 -2.519531 3.78125 -3.03125 C 3.78125 -3.550781 3.617188 -3.984375 3.296875 -4.328125 C 2.972656 -4.671875 2.554688 -4.84375 2.046875 -4.84375 L 1.828125 -4.84375 Z M 1.828125 -1.234375 "/></g></g><g style="fill:#000000;fill-opacity:1;"><g transform="translate(86.835037, 32.199436)"><path style="stroke:none" d="M 3.921875 -6.078125 L 3.921875 -4.875 L 1.828125 -4.875 L 1.828125 -3.65625 L 3.828125 -3.65625 L 3.828125 -2.4375 L 1.828125 -2.4375 L 1.828125 -1.21875 L 3.921875 -1.21875 L 3.921875 0 L 0.4375 0 L 0.4375 -6.078125 Z M 3.921875 -6.078125 "/></g></g><g style="fill:#000000;fill-opacity:1;"><g transform="translate(90.743913, 32.199436)"><path style="stroke:none" d="M 0.4375 -6.078125 L 2.625 -6.078125 C 3.207031 -6.078125 3.679688 -5.921875 4.046875 -5.609375 C 4.421875 -5.296875 4.609375 -4.851562 4.609375 -4.28125 C 4.609375 -3.832031 4.492188 -3.457031 4.265625 -3.15625 C 4.046875 -2.851562 3.742188 -2.640625 3.359375 -2.515625 L 5.453125 0 L 3.6875 0 L 1.828125 -2.40625 L 1.828125 0 L 0.4375 0 Z M 1.828125 -3.390625 L 1.984375 -3.390625 C 2.117188 -3.390625 2.226562 -3.390625 2.3125 -3.390625 C 2.40625 -3.398438 2.503906 -3.414062 2.609375 -3.4375 C 2.722656 -3.46875 2.816406 -3.507812 2.890625 -3.5625 C 2.960938 -3.625 3.019531 -3.703125 3.0625 -3.796875 C 3.113281 -3.898438 3.140625 -4.023438 3.140625 -4.171875 C 3.140625 -4.328125 3.113281 -4.457031 3.0625 -4.5625 C 3.019531 -4.664062 2.960938 -4.742188 2.890625 -4.796875 C 2.816406 -4.847656 2.722656 -4.890625 2.609375 -4.921875 C 2.503906 -4.953125 2.40625 -4.96875 2.3125 -4.96875 C 2.226562 -4.976562 2.117188 -4.984375 1.984375 -4.984375 L 1.828125 -4.984375 Z M 1.828125 -3.390625 "/></g></g><g style="fill:#000000;fill-opacity:1;"><g transform="translate(95.655839, 32.199436)"><path style="stroke:none" d="M 1.28125 -1.578125 C 1.519531 -1.578125 1.71875 -1.492188 1.875 -1.328125 C 2.039062 -1.160156 2.125 -0.960938 2.125 -0.734375 C 2.125 -0.503906 2.039062 -0.304688 1.875 -0.140625 C 1.71875 0.0234375 1.519531 0.109375 1.28125 0.109375 C 1.050781 0.109375 0.851562 0.0234375 0.6875 -0.140625 C 0.519531 -0.304688 0.4375 -0.503906 0.4375 -0.734375 C 0.4375 -0.960938 0.519531 -1.160156 0.6875 -1.328125 C 0.851562 -1.492188 1.050781 -1.578125 1.28125 -1.578125 Z M 1.28125 -1.578125 "/></g></g></g></svg>